<svg width="368" height="760" viewBox="0 0 368 760" fill="none" xmlns="http://www.w3.org/2000/svg">
<path id="phone-case" fill-rule="evenodd" clip-rule="evenodd" d="M49.0499 0H318.95C348.2 0 366.167 17.8874 366.167 47.0081V166.532C367.245 166.889 368 167.927 368 169.108V244.557C368 245.737 367.245 246.739 366.167 247.132V712.992C366.167 742.113 348.2 760 318.95 760H49.0499C19.7996 760 1.83263 742.113 1.83263 712.992V258.902C0.754614 258.545 0 257.507 0 256.327V212.681C0 211.501 0.754614 210.499 1.83263 210.105V193.434C0.754614 193.077 0 192.039 0 190.859V147.213C0 146.033 0.754614 145.031 1.83263 144.638V122.493C0.754614 122.135 0 121.098 0 119.917V97.2002C0 96.0196 0.754614 95.0179 1.83263 94.6244V47.0081C1.83263 17.8874 19.7996 0 49.0499 0Z" fill="#000003"/>
</svg>
