<svg width="400" height="400" viewBox="0 0 400 400" fill="none" xmlns="http://www.w3.org/2000/svg">
<rect width="400" height="400" fill="white"/>
<g id="mobile-svgrepo-com 1" clip-path="url(#clip0_0_1)">
<path id="Vector" d="M116.667 300V366.667H283.333V300H116.667Z" fill="#F9AEAE"/>
<path id="phone-color" d="M116.663 0H283.327C301.736 0 316.66 16.2806 316.66 36.3636V363.636C316.66 383.719 301.736 400 283.327 400H116.663C98.2536 400 83.33 383.719 83.33 363.636V36.3636C83.33 16.2806 98.2536 0 116.663 0ZM116.663 33.3333V366.667H283.327V33.3333H116.663ZM199.995 350C190.79 350 183.329 342.538 183.329 333.333C183.329 324.129 190.79 316.667 199.995 316.667C209.2 316.667 216.661 324.129 216.661 333.333C216.661 342.538 209.2 350 199.995 350ZM183.329 75C178.726 75 174.995 71.269 174.995 66.6667C174.995 62.0643 178.726 58.3333 183.329 58.3333H216.661C221.264 58.3333 224.995 62.0643 224.995 66.6667C224.995 71.269 221.264 75 216.661 75H183.329Z" fill="#030000"/>
</g>
<defs>
<clipPath id="clip0_0_1">
<rect width="400" height="400" fill="white"/>
</clipPath>
</defs>
</svg>
