<?xml version="1.0" encoding="iso-8859-1"?>
<!-- Uploaded to: SVG Repo, www.svgrepo.com, Generator: SVG Repo Mixer Tools -->
<!DOCTYPE svg PUBLIC "-//W3C//DTD SVG 1.1//EN" "http://www.w3.org/Graphics/SVG/1.1/DTD/svg11.dtd">
<svg fill="#000000" version="1.1" id="Capa_1" xmlns="http://www.w3.org/2000/svg" xmlns:xlink="http://www.w3.org/1999/xlink" 
	 width="800px" height="800px" viewBox="0 0 46.18 46.18" xml:space="preserve"
	>
<g>
	<g>
		<path d="M24.213,14.972c0.01-0.144,0.029-0.285,0.029-0.431c0-5.048-5.426-9.14-12.121-9.14C5.427,5.402,0,9.494,0,14.542
			c0,2.05,0.895,3.942,2.406,5.466l-1.26,4.372c-0.101,0.351,0.008,0.726,0.28,0.965c0.272,0.242,0.659,0.304,0.993,0.162
			l5.554-2.374c1.294,0.355,2.69,0.55,4.147,0.55c0.977,0,1.921-0.097,2.831-0.261C16.418,19.682,19.821,16.628,24.213,14.972z
			 M17.239,15.81c-0.069,0.069-3.43,3.414-4.667,4.645c-0.249,0.248-0.653,0.248-0.902,0c-1.237-1.229-4.598-4.575-4.666-4.645
			c-1.417-1.416-1.417-3.712,0-5.128c1.412-1.412,3.7-1.415,5.117-0.01c1.416-1.405,3.706-1.402,5.118,0.01
			C18.654,12.098,18.654,14.394,17.239,15.81z"/>
		<path d="M43.299,34.11c1.809-1.823,2.881-4.089,2.881-6.543c0-6.043-6.496-10.94-14.51-10.94c-8.014,0-14.509,4.897-14.509,10.94
			c0,6.042,6.495,10.939,14.509,10.939c1.744,0,3.416-0.232,4.964-0.658l6.648,2.841c0.143,0.062,0.293,0.09,0.442,0.09
			c0.271,0,0.535-0.096,0.744-0.281c0.327-0.286,0.458-0.737,0.338-1.155L43.299,34.11z M37.796,29.084
			c-0.082,0.084-4.104,4.086-5.586,5.561c-0.299,0.297-0.78,0.297-1.08,0c-1.481-1.475-5.503-5.477-5.586-5.561
			c-1.694-1.695-1.694-4.441,0-6.138c1.69-1.69,4.431-1.695,6.126-0.013c1.696-1.683,4.436-1.678,6.126,0.013
			C39.491,24.642,39.491,27.389,37.796,29.084z"/>
	</g>
</g>
</svg>