<svg width="800" height="800" viewBox="0 0 800 800" fill="none" xmlns="http://www.w3.org/2000/svg">
<g id="icecream-08-svgrepo-com 1">
<path id="Vector" d="M399.453 794.063C380.234 794.063 364.688 778.516 364.688 759.297V552.734C364.688 551.953 365.313 551.25 366.172 551.25H432.813C433.594 551.25 434.297 551.875 434.297 552.734V759.219C434.297 778.438 418.672 794.063 399.453 794.063Z" fill="#EAD681"/>
<path id="Vector_2" d="M399.453 797.188C378.516 797.188 361.562 780.156 361.562 759.297V552.734C361.562 550.156 363.594 548.125 366.172 548.125H432.813C435.391 548.125 437.422 550.156 437.422 552.734V759.219C437.422 780.156 420.391 797.188 399.453 797.188ZM367.812 554.375V759.219C367.812 776.719 382.031 790.859 399.453 790.859C416.875 790.859 431.094 776.641 431.094 759.219V554.375H367.812Z" fill="#49332E"/>
<path id="body-dark" d="M506.25 572.812H288.672C260.469 572.812 237.578 549.922 237.578 521.719V167.344C237.578 78.4375 309.688 6.32812 398.594 6.32812H401.719C489.844 6.32812 561.328 77.8125 561.328 165.937V517.734C561.328 548.203 536.641 572.812 506.25 572.812Z" fill="#775954"/>
<path id="Vector_3" d="M506.25 575.938H288.672C258.75 575.938 234.453 551.641 234.453 521.719V167.344C234.453 76.7969 308.125 3.20312 398.594 3.20312H401.719C491.484 3.20312 564.453 76.1719 564.453 165.937V517.734C564.453 549.844 538.359 575.938 506.25 575.938ZM398.672 9.45312C311.641 9.45312 240.781 80.3125 240.781 167.344V521.719C240.781 548.125 262.266 569.688 288.75 569.688H506.25C534.922 569.688 558.203 546.406 558.203 517.734V165.937C558.203 79.6875 487.969 9.45312 401.719 9.45312H398.672Z" fill="#49332E"/>
<path id="body-light" d="M471.406 572.812H291.875C261.875 572.812 237.578 548.516 237.578 518.516V168.203C237.578 78.8281 310.078 6.32812 399.453 6.32812C488.828 6.32812 525.625 78.8281 525.625 168.203V518.594C525.703 548.516 501.406 572.812 471.406 572.812Z" fill="#8E726C"/>
<path id="Vector_4" d="M442.5 50.0781C443.75 50.0781 445 50.0781 446.25 50.1562C431.953 40.4687 414.063 35 392.188 35C337.422 35 290.625 69.2969 272.109 117.578C316.641 75.7031 376.563 50.0781 442.5 50.0781Z" fill="#CCB4B0"/>
<path id="Vector_5" d="M507.656 575.938H289.062C258.984 575.938 234.453 551.484 234.453 521.328V168.203C234.453 77.2656 308.437 3.20312 399.453 3.20312C490.469 3.20312 564.453 77.1875 564.453 168.203V519.219C564.453 550.469 538.984 575.938 507.656 575.938ZM399.453 9.45312C311.953 9.45312 240.703 80.625 240.703 168.203V521.406C240.703 548.047 262.422 569.766 289.062 569.766H507.656C535.547 569.766 558.203 547.109 558.203 519.219V168.203C558.203 80.7031 487.031 9.45312 399.453 9.45312Z" fill="#49332E"/>
<path id="Vector_6" d="M367.109 307.344C352.969 307.344 341.484 295.859 341.484 281.719C341.484 277.813 342.344 274.063 343.984 270.625C344.531 269.453 345.937 268.984 347.109 269.531C348.281 270.078 348.75 271.484 348.203 272.656C346.797 275.469 346.172 278.516 346.172 281.719C346.172 293.281 355.547 302.656 367.109 302.656C378.672 302.656 388.047 293.281 388.047 281.719C388.047 280.391 389.063 279.375 390.391 279.375C391.719 279.375 392.734 280.391 392.734 281.719C392.734 295.781 381.25 307.344 367.109 307.344Z" fill="#49332E"/>
<path id="Vector_7" d="M413.672 307.344C399.531 307.344 388.047 295.859 388.047 281.719C388.047 280.391 389.062 279.375 390.391 279.375C391.719 279.375 392.734 280.391 392.734 281.719C392.734 293.281 402.109 302.656 413.672 302.656C425.234 302.656 434.609 293.281 434.609 281.719C434.609 278.516 433.906 275.469 432.578 272.656C432.031 271.484 432.5 270.078 433.672 269.531C434.844 268.984 436.25 269.453 436.797 270.625C438.437 274.141 439.297 277.813 439.297 281.719C439.297 295.781 427.812 307.344 413.672 307.344Z" fill="#49332E"/>
<path id="Vector_8" d="M312.812 244.922C296.25 244.922 282.812 233.75 282.812 220.078C282.812 218.75 283.828 217.734 285.156 217.734C286.484 217.734 287.5 218.75 287.5 220.078C287.5 231.172 298.828 240.234 312.812 240.234C326.797 240.234 338.125 231.172 338.125 220.078C338.125 218.75 339.141 217.734 340.469 217.734C341.797 217.734 342.812 218.75 342.812 220.078C342.812 233.75 329.375 244.922 312.812 244.922ZM462.656 244.922C446.094 244.922 432.656 233.75 432.656 220.078C432.656 218.75 433.672 217.734 435 217.734C436.328 217.734 437.344 218.75 437.344 220.078C437.344 231.172 448.672 240.234 462.656 240.234C476.641 240.234 487.969 231.172 487.969 220.078C487.969 218.75 488.984 217.734 490.312 217.734C491.641 217.734 492.656 218.75 492.656 220.078C492.656 233.75 479.219 244.922 462.656 244.922Z" fill="#49332E"/>
<path id="Vector_9" d="M292.109 271.563C292.109 272.66 292.645 273.747 293.685 274.761C294.726 275.776 296.251 276.697 298.173 277.473C300.096 278.25 302.378 278.865 304.89 279.286C307.402 279.706 310.094 279.922 312.812 279.922C315.531 279.922 318.223 279.706 320.735 279.286C323.247 278.865 325.529 278.25 327.452 277.473C329.374 276.697 330.899 275.776 331.94 274.761C332.98 273.747 333.516 272.66 333.516 271.563C333.516 270.465 332.98 269.378 331.94 268.364C330.899 267.349 329.374 266.428 327.452 265.652C325.529 264.875 323.247 264.26 320.735 263.839C318.223 263.419 315.531 263.203 312.812 263.203C310.094 263.203 307.402 263.419 304.89 263.839C302.378 264.26 300.096 264.875 298.173 265.652C296.251 266.428 294.726 267.349 293.685 268.364C292.645 269.378 292.109 270.465 292.109 271.563Z" fill="#AF5F54"/>
<path id="Vector_10" d="M445.234 271.563C445.234 273.78 447.416 275.906 451.298 277.473C455.181 279.041 460.447 279.922 465.938 279.922C471.428 279.922 476.694 279.041 480.577 277.473C484.459 275.906 486.641 273.78 486.641 271.563C486.641 269.345 484.459 267.219 480.577 265.652C476.694 264.084 471.428 263.203 465.938 263.203C460.447 263.203 455.181 264.084 451.298 265.652C447.416 267.219 445.234 269.345 445.234 271.563Z" fill="#AF5F54"/>
</g>
</svg>
