<?xml version="1.0" encoding="UTF-8" standalone="no"?>
<!-- Created with Inkscape (http://www.inkscape.org/) -->

<svg
   version="1.1"
   id="svg1"
   width="672.68744"
   height="554.58801"
   viewBox="0 0 672.68744 554.58801"
   xmlns:xlink="http://www.w3.org/1999/xlink"
   xmlns="http://www.w3.org/2000/svg"
   xmlns:svg="http://www.w3.org/2000/svg">
  <defs
     id="defs1">
    <linearGradient
       id="swatch231">
      <stop
         style="stop-color:#4e4112;stop-opacity:1;"
         offset="0"
         id="stop232" />
    </linearGradient>
    <linearGradient
       id="linearGradient154">
      <stop
         style="stop-color:#ffe461;stop-opacity:1;"
         offset="0"
         id="stop154" />
      <stop
         style="stop-color:#a200af;stop-opacity:0.88043481;"
         offset="1"
         id="stop155" />
    </linearGradient>
    <linearGradient
       id="linearGradient152">
      <stop
         style="stop-color:#8b4e26;stop-opacity:1;"
         offset="0"
         id="stop152" />
      <stop
         style="stop-color:#8b4e26;stop-opacity:0.71739131;"
         offset="1"
         id="stop153" />
    </linearGradient>
    <linearGradient
       id="swatch59">
      <stop
         style="stop-color:#000000;stop-opacity:1;"
         offset="0"
         id="stop59" />
    </linearGradient>
    <linearGradient
       id="linearGradient52">
      <stop
         style="stop-color:#000000;stop-opacity:1;"
         offset="0"
         id="stop52" />
      <stop
         style="stop-color:#000000;stop-opacity:0;"
         offset="1"
         id="stop53" />
    </linearGradient>
    <linearGradient
       id="linearGradient48">
      <stop
         style="stop-color:#000000;stop-opacity:1;"
         offset="0"
         id="stop48" />
      <stop
         style="stop-color:#000000;stop-opacity:0;"
         offset="1"
         id="stop49" />
    </linearGradient>
    <linearGradient
       xlink:href="#linearGradient48"
       id="linearGradient49"
       x1="598.98358"
       y1="350.92572"
       x2="635.86951"
       y2="350.92572"
       gradientUnits="userSpaceOnUse" />
    <linearGradient
       xlink:href="#linearGradient52"
       id="linearGradient53"
       x1="520.79565"
       y1="248.41321"
       x2="606.85138"
       y2="248.41321"
       gradientUnits="userSpaceOnUse" />
    <linearGradient
       xlink:href="#linearGradient152"
       id="linearGradient153"
       x1="485.57315"
       y1="273.25436"
       x2="650.93701"
       y2="273.25436"
       gradientUnits="userSpaceOnUse" />
    <linearGradient
       xlink:href="#swatch59"
       id="linearGradient232"
       x1="220.6162"
       y1="336.78043"
       x2="726.23273"
       y2="336.78043"
       gradientUnits="userSpaceOnUse" />
    <linearGradient
       xlink:href="#swatch59"
       id="linearGradient233"
       gradientUnits="userSpaceOnUse"
       x1="163.66174"
       y1="219.63382"
       x2="795.78119"
       y2="449.70648" />
    <linearGradient
       xlink:href="#swatch59"
       id="linearGradient2"
       gradientUnits="userSpaceOnUse"
       x1="163.66174"
       y1="219.63382"
       x2="795.78119"
       y2="449.70648" />
    <linearGradient
       xlink:href="#swatch59"
       id="linearGradient3"
       gradientUnits="userSpaceOnUse"
       x1="163.66174"
       y1="219.63382"
       x2="795.78119"
       y2="449.70648" />
    <linearGradient
       xlink:href="#swatch59"
       id="linearGradient4"
       gradientUnits="userSpaceOnUse"
       x1="163.66174"
       y1="219.63382"
       x2="795.78119"
       y2="449.70648" />
    <linearGradient
       xlink:href="#swatch59"
       id="linearGradient5"
       gradientUnits="userSpaceOnUse"
       x1="163.66174"
       y1="219.63382"
       x2="795.78119"
       y2="449.70648" />
    <linearGradient
       xlink:href="#swatch59"
       id="linearGradient6"
       gradientUnits="userSpaceOnUse"
       x1="163.66174"
       y1="219.63382"
       x2="795.78119"
       y2="449.70648" />
    <linearGradient
       xlink:href="#swatch59"
       id="linearGradient7"
       gradientUnits="userSpaceOnUse"
       x1="163.66174"
       y1="219.63382"
       x2="795.78119"
       y2="449.70648" />
    <linearGradient
       xlink:href="#swatch59"
       id="linearGradient8"
       gradientUnits="userSpaceOnUse"
       x1="220.6162"
       y1="336.78043"
       x2="726.23273"
       y2="336.78043" />
    <linearGradient
       xlink:href="#swatch59"
       id="linearGradient9"
       gradientUnits="userSpaceOnUse"
       x1="220.6162"
       y1="336.78043"
       x2="726.23273"
       y2="336.78043" />
    <linearGradient
       xlink:href="#swatch59"
       id="linearGradient10"
       gradientUnits="userSpaceOnUse"
       x1="220.6162"
       y1="336.78043"
       x2="726.23273"
       y2="336.78043" />
    <linearGradient
       xlink:href="#swatch59"
       id="linearGradient11"
       gradientUnits="userSpaceOnUse"
       x1="220.6162"
       y1="336.78043"
       x2="726.23273"
       y2="336.78043" />
    <linearGradient
       xlink:href="#swatch59"
       id="linearGradient12"
       gradientUnits="userSpaceOnUse"
       x1="220.6162"
       y1="336.78043"
       x2="726.23273"
       y2="336.78043" />
    <linearGradient
       xlink:href="#swatch59"
       id="linearGradient13"
       gradientUnits="userSpaceOnUse"
       x1="220.6162"
       y1="336.78043"
       x2="726.23273"
       y2="336.78043" />
    <linearGradient
       xlink:href="#swatch59"
       id="linearGradient14"
       gradientUnits="userSpaceOnUse"
       x1="220.6162"
       y1="336.78043"
       x2="726.23273"
       y2="336.78043" />
    <linearGradient
       xlink:href="#swatch59"
       id="linearGradient15"
       gradientUnits="userSpaceOnUse"
       x1="220.6162"
       y1="336.78043"
       x2="726.23273"
       y2="336.78043" />
    <linearGradient
       xlink:href="#swatch59"
       id="linearGradient16"
       gradientUnits="userSpaceOnUse"
       x1="220.6162"
       y1="336.78043"
       x2="726.23273"
       y2="336.78043" />
    <linearGradient
       xlink:href="#swatch59"
       id="linearGradient17"
       gradientUnits="userSpaceOnUse"
       x1="220.6162"
       y1="336.78043"
       x2="726.23273"
       y2="336.78043" />
    <linearGradient
       xlink:href="#swatch59"
       id="linearGradient18"
       gradientUnits="userSpaceOnUse"
       x1="220.6162"
       y1="336.78043"
       x2="726.23273"
       y2="336.78043" />
  </defs>
  <g
     id="g1"
     style="opacity:1"
     transform="translate(-143.37779,-59.486439)">
    <g
       id="g88"
       style="fill:url(#linearGradient233)">
      <path
         style="opacity:1;fill:url(#linearGradient2);fill-opacity:1"
         d="m 191.18987,406.22062 c 5.32369,-7.17541 13.88789,-31.71067 13.88789,-31.71067 0,0 3.47197,-9.25859 2.77757,-19.90597 -0.69439,-10.64738 -1.22159,-16.543 -1.22159,-16.543 0,0 -0.16367,-3.92809 -1.88221,-9.57472 -1.71854,-5.64662 -9.90205,-22.42283 -13.66647,-27.90578 -3.76442,-5.48295 -22.17732,-47.87356 11.86609,-76.35219 34.04342,-28.47863 20.9498,-74.96099 19.96778,-77.25237 -0.98202,-2.29139 -6.54681,-18.65842 -6.21947,-26.18725 0.32734,-7.52883 3.60074,-22.586498 10.4749,-27.496607 6.87415,-4.910109 8.68821,-4.178139 8.51461,-5.046131 -0.1736,-0.867993 -3.87703,-1.041592 -5.43942,-0.723328 -1.56239,0.318264 -8.88246,4.86076 -9.22966,5.179024 -0.34719,0.318264 -9.11392,8.274862 -10.84991,12.209762 -1.73598,3.9349 -3.44304,7.20434 -3.57323,7.49367 -0.1302,0.28933 -2.15552,6.62568 -2.50272,8.3038 -0.34719,1.67812 -1.44665,9.83725 -1.50452,12.09403 -0.0579,2.25678 -0.0579,7.98554 0.3472,10.35805 0.40506,2.37251 1.04159,6.88608 1.38879,8.3906 0.34719,1.50452 0.81012,5.03436 0.86799,7.11754 0.0579,2.08318 1.09946,4.68716 0.57866,8.73779 -0.52079,4.05063 -1.38879,5.78662 -2.02531,7.05968 -0.63653,1.27305 -1.85172,5.55515 -4.8029,10.53164 -2.95117,4.97649 -8.44846,10.35805 -8.44846,10.35805 l -0.0579,-0.0579 c 0,0 -14.81374,12.03617 -17.59132,13.94575 -2.77757,1.90959 -11.16817,8.33273 -15.45027,14.46655 -4.2821,6.13382 -6.30741,8.73779 -7.05967,10.58951 -0.75226,1.85172 -4.33997,10.30018 -4.57143,11.16818 -0.23147,0.86799 -2.60398,8.96925 -2.25678,13.65641 0.34719,4.68717 -0.3472,6.94395 -0.0579,10.24232 0.28933,3.29837 0.81013,9.49005 1.38879,10.93671 0.57866,1.44665 6.94394,19.15371 8.91139,22.45208 1.96745,3.29837 24.24593,31.6528 24.24593,31.6528 0,0 6.48102,9.20072 8.33273,13.36709 1.85172,4.16636 5.55516,13.54069 5.78662,18.40145 0.23147,4.86076 2.08319,11.34177 1.27306,21.75768 -0.81013,10.41591 -0.92586,15.04521 -2.19892,18.28572 z"
         id="path1" />
      <path
         style="opacity:1;fill:url(#linearGradient3);fill-opacity:1"
         d="m 160.72422,432.25323 c 0,0 -0.81835,23.40485 1.96404,29.62432 2.7824,6.21947 8.34719,18.65841 14.894,22.5865 6.54681,3.92808 12.76628,7.85617 25.20522,8.18351 12.43895,0.32734 20.9498,-0.16367 31.26103,-6.71048 10.31123,-6.54681 34.86177,-27.33294 34.86177,-27.33294 0,0 -0.52692,0.9691 -0.006,-0.0146 0.5208,-0.98372 -0.5208,-1.67812 -1.50452,-1.56238 -0.98373,0.11573 -16.54973,4.68716 -22.79928,5.72875 -6.24955,1.04159 -15.45027,2.43038 -20.71609,1.21519 -5.26582,-1.21519 -20.60577,-3.56656 -31.24434,-19.93358 -10.63857,-16.36703 -12.3289,-26.88017 -12.6761,-28.73188 -0.34719,-1.85172 -2.66184,-16.02894 -6.07595,-21.64196 -3.4141,-5.61302 -5.32368,-10.24231 -9.77938,-13.25135 -4.4557,-3.00904 -10.66184,-4.44123 -11.60217,-3.99277 -0.94033,0.44846 -0.59313,0.37613 1.22966,1.12839 1.82278,0.75226 4.61482,2.89331 5.03435,3.73237 0.41953,0.83906 2.98011,3.51537 3.90597,5.78662 0.92586,2.27125 1.51899,3.86257 1.80832,5.69982 0.28933,1.83725 1.01266,5.85895 0.75226,7.4358 -0.2604,1.57686 -0.24593,5.90235 -0.23146,6.55335 0.0145,0.65099 -0.15914,2.69078 -0.40507,3.48644 -0.24593,0.79566 -0.49186,2.73417 -0.76672,3.77576 -0.27487,1.0416 -2.50093,13.71441 -3.10942,18.23515 z"
         id="path13" />
      <path
         style="opacity:1;fill:url(#linearGradient4);fill-opacity:1"
         d="m 218.6635,331.43233 c 0,0 13.74831,-10.4749 15.87602,-22.5865 0,0 2.78239,-8.67453 2.61872,-16.03969 -0.16367,-7.36516 -5.89213,-17.34905 -5.89213,-17.34905 0,0 -3.92808,-5.89213 -2.78239,-13.7483 1.14569,-7.85618 6.71048,-16.20336 8.34718,-17.18538 1.63671,-0.98202 -1.113,-1.02251 -1.113,-1.02251 0,0 -6.79927,2.57505 -8.82459,4.3689 -2.02532,1.79385 -4.62929,2.98011 -7.5226,6.27848 -2.89331,3.29838 -5.43943,7.63834 -5.72876,8.96926 -0.28933,1.33092 -1.15732,4.4557 -1.33092,8.27487 -0.1736,3.81916 0.1736,8.67992 0.57866,10.01085 0.40507,1.33092 1.27306,5.26582 1.90959,7.0018 0.63653,1.73599 1.90958,4.39783 2.31464,6.53888 0.40507,2.14105 1.50453,4.86076 1.79386,6.53888 0.28933,1.67812 1.33092,2.89331 1.44665,8.85353 0.11573,5.96022 -0.63653,14.00361 -1.04159,15.45027 -0.40506,1.44665 -0.19922,4.57894 -0.64934,5.64571 z"
         id="path15" />
      <path
         style="opacity:1;fill:url(#linearGradient5);fill-opacity:1"
         d="m 685.01989,62.379747 c 0,0 2.39531,-2.578716 2.52829,-2.220687 0.13299,0.358028 -0.0307,1.452573 -0.20458,1.994731 -0.1739,0.542158 -1.02172,3.177131 -1.39785,4.377855 -0.37613,1.200723 -0.99819,2.965642 -0.99819,3.645569 0,0.679928 -0.18806,2.719711 -0.0723,3.660037 0.11573,0.940325 -0.73343,10.166522 0.044,13.23534 0.77743,3.068818 5.19653,13.789218 8.46994,16.939878 3.2734,3.15065 13.09362,13.83014 15.87601,17.43088 2.7824,3.60075 6.13764,6.38314 7.2015,8.8382 1.06385,2.45505 3.35524,4.33726 4.33726,10.7204 0.98202,6.38314 1.71854,10.39306 1.22753,16.12152 -0.49101,5.72846 -1.55487,12.02977 -3.35524,17.84007 -1.80038,5.81029 -0.81836,7.36516 -1.80038,6.54681 -0.98202,-0.81835 -2.43459,-4.99195 -2.70056,-6.13764 -0.26596,-1.14569 -1.12523,-4.62368 -2.25046,-7.36516 -1.12524,-2.74148 -3.70304,-8.10168 -3.92809,-8.92003 -0.22505,-0.81835 -2.39368,-5.89213 -3.08928,-6.95599 -0.69559,-1.06386 -3.0279,-5.93305 -4.84873,-8.30627 -1.82083,-2.37322 -3.10973,-4.68506 -5.0124,-6.56727 -1.90267,-1.8822 -2.88469,-4.48047 -4.46002,-5.78983 -1.57532,-1.30936 -4.27588,-5.31929 -5.09423,-6.62865 -0.81835,-1.30936 -4.21451,-5.85121 -6.26039,-9.49288 -2.04588,-3.64166 -4.00992,-9.12461 -4.17359,-10.67948 -0.16367,-1.55487 -1.3912,-4.46002 -1.63671,-10.843158 -0.2455,-6.383142 -0.36826,-13.666469 3.23249,-19.108506 3.60075,-5.442037 4.17033,-7.895273 8.36601,-12.335739 z"
         id="path16" />
      <path
         style="opacity:1;fill:url(#linearGradient6);fill-opacity:1"
         d="m 571.48644,609.21519 c 0,0 -2.77758,-25.69259 16.43399,-41.66365 19.21158,-15.97107 35.64557,-17.35986 39.00181,-17.93852 3.35624,-0.57866 16.89693,-2.43038 21.64196,-2.31465 4.74502,0.11574 38.851,-1.62164 49.16223,-4.89504 10.31123,-3.27341 20.85585,-8.99284 25.02222,-12.23335 4.16636,-3.2405 10.57607,-7.97993 15.15883,-16.08161 4.58277,-8.10168 8.04551,-17.30718 8.68203,-20.25835 0.63653,-2.95118 2.08319,-6.71248 1.09946,-5.72875 -0.98372,0.98372 -11.6311,10.09765 -13.45389,11.4575 -1.82278,1.35986 -12.03994,7.73728 -19.07776,10.51968 -7.03783,2.78239 -19.49005,2.96314 -32.68354,4.35193 -13.19349,1.38879 -16.89693,1.15732 -11.92043,0.57866 4.97649,-0.57866 20.25316,-2.31464 29.97468,-8.33273 9.72152,-6.01808 12.03617,-8.217 16.54973,-13.30922 4.51356,-5.09222 13.21906,-17.49573 20.58422,-23.63337 7.36516,-6.13763 16.85804,-14.07564 25.04155,-19.31309 8.18352,-5.23745 19.80411,-13.42097 29.46065,-24.71422 9.65655,-11.29325 17.51272,-18.65841 20.62246,-31.75203 3.10974,-13.09362 3.19157,-15.87602 3.27341,-21.60448 0.0818,-5.72846 -0.81836,-20.29511 -1.80038,-13.58463 -0.98202,6.71048 -3.35524,14.48482 -9.98388,23.73219 -6.62865,9.24737 -19.23126,17.67639 -19.23126,17.67639 0,0 -21.95852,12.67776 -27.29895,15.76105 -5.34042,3.0833 -20.73828,12.39024 -26.79408,19.10072 -6.0558,6.71048 -10.80224,10.4749 -11.94793,12.43894 -1.1457,1.96405 -11.94793,19.47677 -7.2015,10.31123 4.74644,-9.16554 7.36517,-19.14942 24.22321,-36.82581 16.85804,-17.6764 44.93675,-45.75564 51.64922,-69.13358 6.71248,-23.37794 14.58228,-53.00542 4.39783,-78.92947 -10.18444,-25.92405 -28.70162,-55.55154 -31.4792,-70.82821 -2.77758,-15.27668 -4.74503,-35.76131 -0.11573,-45.25136 4.62929,-9.49005 15.7396,-21.29476 6.82821,-14.35081 -8.9114,6.94394 -20.0217,17.93851 -24.18807,29.28029 -4.16636,11.34177 -5.32369,20.0217 -5.43942,30.90054 -0.11573,10.87884 -0.57866,20.25316 3.81917,38.53888 4.39783,18.28571 10.64738,30.90054 12.1519,48.83906 1.50452,17.93851 -0.81013,27.8915 -4.6293,40.50633 -3.81917,12.61482 -14.81374,36.57142 -22.45208,46.52441 -7.63833,9.95298 -13.21087,19.43521 -15.01124,22.54494 -1.80037,3.10974 -15.63051,22.50467 -25.12339,48.69191 -9.49288,26.18725 -16.36703,40.26289 -26.84193,46.64603 -10.4749,6.38315 -20.13144,9.82022 -23.20026,10.31123 -3.06882,0.49101 -12.15252,3.80534 -13.62555,4.25543 -1.47303,0.45009 -5.48296,1.88221 -3.23249,0.36826 2.25047,-1.51395 10.59765,-7.11966 14.11656,-10.35215 3.51891,-3.23248 7.62355,-6.84901 8.8966,-8.9322 1.27306,-2.08318 5.75189,-8.25318 6.36566,-10.1763 0.61376,-1.92313 3.19157,-10.88408 3.06881,-16.03969 -0.12275,-5.15561 0.0409,-7.07874 -0.49101,-7.85617 -0.53192,-0.77744 -1.15592,-2.82332 -1.115,-1.30937 0.0409,1.51395 0.21494,2.48461 -2.38903,6.41951 -2.60398,3.9349 -3.67451,6.79927 -8.70887,11.16817 -5.03435,4.3689 -10.82097,8.24593 -11.05244,8.33273 -0.23146,0.0868 -26.24492,12.17385 -40.81157,24.61279 -14.56666,12.43895 -25.04156,22.91384 -29.46066,37.15316 -4.41909,14.23931 -5.40111,31.42469 -1.47303,42.06326 3.92809,10.63857 12.33854,22.98261 15.00747,24.25759 z"
         id="path27" />
      <path
         style="opacity:1;fill:url(#linearGradient7);fill-opacity:1;fill-rule:evenodd"
         d="m 430.06148,504.82459 c 0,0 -1.85171,17.82279 6.24955,28.9331 8.10127,11.1103 24.99819,25.69258 38.42315,29.97468 13.42495,4.2821 25.22965,8.33273 20.83182,4.2821 -4.39783,-4.05064 -11.92043,-14.35082 -13.88788,-21.17903 -1.96745,-6.82821 -5.55515,-17.47558 -4.05063,-26.50271 1.50452,-9.02712 2.89331,-17.59132 9.72152,-27.31284 6.82821,-9.72152 10.53164,-15.7396 18.63291,-19.79023 8.10126,-4.05064 15.96262,-6.93301 20.54539,-6.93301 4.58277,0 8.8382,0.40917 10.39306,0.65468 1.55487,0.2455 5.56479,0.81835 4.50094,1.39119 -1.06386,0.57285 -8.01985,6.30131 -12.02977,10.96591 -4.00992,4.66461 -11.29325,14.56666 -13.33913,21.27714 -2.04588,6.71048 -6.54681,14.15748 -6.46497,23.56852 0.0818,9.41104 0.0818,23.15935 2.86423,30.68818 2.78239,7.52883 10.39306,24.30504 14.89399,30.68818 4.50093,6.38314 9.82022,14.32115 9.82022,14.32115 0,0 2.37322,2.20955 1.6367,2.45505 -0.73651,0.24551 -1.55487,0 -4.82827,-2.53689 -3.27341,-2.53689 -10.72041,-8.34718 -13.91198,-10.06572 -3.19157,-1.71854 -18.24923,-8.26535 -22.34099,-9.98389 -4.09176,-1.71853 -30.44267,-12.3571 -34.53443,-14.73032 -4.09176,-2.37322 -11.88854,-7.47807 -14.02958,-9.64806 -2.14105,-2.16998 -11.5439,-11.13807 -13.71253,-14.9434 -2.16863,-3.80534 -6.79232,-11.98885 -7.2015,-18.12649 -0.40917,-6.13763 -2.25577,-13.86294 1.81818,-17.44729 z"
         id="path53" />
    </g>
    <g
       id="g47"
       style="display:inline">
      <path
         style="opacity:1;fill:url(#linearGradient153);fill-opacity:1"
         d="m 504.36166,448.81013 c 0,0 13.19349,-3.47197 31.47921,3.2405 18.28571,6.71248 34.25678,14.35082 49.07052,14.81375 14.81375,0.46293 30.78481,-2.54612 34.48825,-10.64738 3.70344,-8.10127 3.9349,-5.32369 3.24051,-15.27667 -0.6944,-9.95299 1.85171,-17.35986 2.77757,-18.51718 0.92586,-1.15733 -2.08318,3.00904 -12.73056,-0.23147 -10.64738,-3.2405 -16.31826,-9.49005 -19.6745,-13.65642 -3.35624,-4.16636 -6.82821,-10.64737 -11.11031,-10.41591 -4.2821,0.23146 -4.65823,1.18626 -4.39783,0.0579 0.2604,-1.12839 0.95479,-2.57505 2.69078,-3.18264 1.73599,-0.6076 1.12839,-1.35986 0.6076,-1.44666 -0.5208,-0.0868 -1.41773,-0.83906 -1.07053,-1.64918 0.3472,-0.81013 1.76492,-0.98373 2.31465,-0.5208 0.54973,0.46293 5.23689,1.90958 8.24593,1.21519 3.00904,-0.69439 6.74141,-1.76492 9.37432,-2.83544 2.63291,-1.07053 17.01266,-11.13924 22.68355,-11.25498 5.67088,-0.11573 5.84448,-0.75226 7.349,0.0579 1.50452,0.81013 4.74503,3.64557 6.30741,5.84448 1.56239,2.19892 2.08319,3.81917 2.60398,2.19892 0.5208,-1.62025 0.75226,-3.00904 0.11574,-4.22423 -0.63653,-1.21519 -2.83545,-4.8029 -3.87704,-6.07595 -1.04159,-1.27306 -3.64557,-2.43038 -4.39783,-5.96022 -0.75226,-3.52984 -1.67812,-10.24231 0.57866,-11.39964 2.25678,-1.15732 10.53165,-4.16636 15.04521,-10.30018 4.51356,-6.13381 4.80289,-6.77034 4.86076,-10.24231 0.0579,-3.47197 -8.0434,-15.39241 -11.16817,-19.44304 -3.12478,-4.05063 -16.49187,-24.94033 -17.07053,-27.19711 -0.57866,-2.25678 -3.81917,-9.25859 -3.2405,-15.566 0.57866,-6.30742 1.04159,-9.37432 2.25678,-13.25136 1.21519,-3.87703 2.19891,-11.39964 1.96745,-15.85533 -0.23147,-4.4557 -1.62026,-10.70525 -2.89331,-13.48282 -1.27306,-2.77758 -3.64557,-8.5642 -8.85353,-17.18626 -5.20795,-8.62206 -10.06871,-17.59132 -13.01989,-20.71609 -2.95117,-3.12478 -9.95298,-11.80471 -13.77215,-12.61483 -3.81917,-0.81013 -8.44846,-0.81013 -12.73056,2.08318 -4.2821,2.89331 -8.10127,4.2821 -4.97649,1.85172 3.12477,-2.43038 20.60036,-15.97107 26.50271,-26.50271 5.90235,-10.53165 9.95298,-16.89693 10.64738,-29.62749 0.69439,-12.73056 0.11573,-20.3689 -6.82821,-31.826402 -6.94395,-11.457505 -19.26506,-20.01416 -19.91974,-19.441314 -0.65469,0.572846 -0.90019,0.654681 -0.32735,1.636703 0.57285,0.982022 9.16554,9.738382 11.62059,14.48482 2.45506,4.746443 8.75637,17.758223 8.8382,22.668333 0.0818,4.91011 1.14569,14.894 -1.80037,23.89586 -2.94607,9.00187 -11.45692,23.65036 -14.97583,27.98762 -3.51892,4.33727 -13.91198,16.12153 -16.69437,17.9219 -2.7824,1.80037 -7.36517,4.4191 -9.49288,5.15561 -2.12771,0.73652 -6.0558,3.27341 -3.51891,0.98202 2.53689,-2.29138 4.82827,-4.9101 6.0558,-5.89213 1.22753,-0.98202 5.72846,-5.40112 4.00992,-4.82827 -1.71854,0.57285 -3.68258,2.37322 -7.61067,5.23745 -3.92808,2.86423 -17.11749,9.20044 -23.2513,11.68869 -6.13382,2.48824 -22.08537,4.5965 -29.6142,12.53451 -7.52883,7.93801 -10.96591,10.4749 -13.01179,19.5586 -2.04588,9.0837 -3.60074,29.70616 -1.47303,34.77994 2.12771,5.07378 7.6925,28.80597 15.05767,39.03536 7.36516,10.22939 17.34905,32.73406 18.4129,36.82582 1.06386,4.09175 6.38315,19.47676 7.28333,29.46065 0.90019,9.98388 0.57285,30.44267 0.32734,33.14323 -0.2455,2.70056 -5.72846,22.01365 -9.0837,27.66028 -3.35524,5.64662 -13.1521,14.70089 -14.22764,15.24754 z"
         id="path43" />
      <path
         style="opacity:1;fill:#72221e;fill-opacity:1"
         d="m 608.19878,405.73864 c 0,0 1.30937,0.98202 8.01985,1.6367 6.71048,0.65468 10.58788,-0.40246 13.19186,1.56499 2.60398,1.96745 3.47197,4.28209 3.52984,4.97649 0.0579,0.69439 2.14105,1.09946 2.14105,-0.3472 0,-1.44665 1.09945,-4.51356 -0.57867,-6.82821 -1.67812,-2.31465 -2.89331,-4.68716 -5.84448,-5.09222 -2.95118,-0.40507 -8.67993,-1.21519 -14.11935,0.40506 -5.43942,1.62025 -6.53888,1.67812 -6.77034,2.08318 -0.23147,0.40507 -1.56989,1.11923 0.43024,1.60121 z"
         id="path45" />
      <path
         style="opacity:1;fill:url(#linearGradient49)"
         d="m 614.53888,351.8264 c 0,0 6.36528,-4.51356 9.83725,-4.97649 3.47197,-0.46293 8.67993,-1.27306 9.72152,-0.46293 1.04159,0.81013 1.96745,1.73599 1.73599,3.24051 -0.23147,1.50452 -1.0416,5.09222 -1.38879,4.05063 -0.3472,-1.04159 -2.43038,-1.15732 -4.97649,-1.15732 -2.54612,0 -4.16637,3.00904 -5.32369,4.16636 -1.15733,1.15733 -3.81917,4.1085 -7.69621,5.09223 -3.87703,0.98372 -10.58951,-0.81013 -13.07775,-3.35624 -2.48825,-2.54611 -5.55516,-8.27487 -3.9349,-13.42496 1.62025,-5.15009 0.81012,-3.06691 1.33092,-3.87703 0.52079,-0.81013 0.98372,-1.62025 1.50452,-1.21519 0.52079,0.40506 0.3472,1.09946 0.23146,2.77758 -0.11573,1.67811 0.46293,5.72875 1.27306,6.94394 0.81013,1.21519 3.00904,3.81917 6.01808,4.1085 3.00904,0.28933 4.16637,-1.62026 4.74503,-1.90959 z"
         id="path47" />
      <path
         style="opacity:1;fill:#000000;fill-opacity:1"
         d="m 534.33635,277.17902 c 0,0 17.24412,14.35082 29.85895,15.85534 12.61483,1.50452 21.87342,-0.57866 22.91501,-1.73599 1.04159,-1.15732 3.70343,-3.00904 3.70343,-4.51356 0,-1.50452 0.92586,-4.74503 0,-9.83725 -0.92585,-5.09222 -1.38878,-5.78662 -0.23146,-4.74503 1.15732,1.04159 4.2821,8.217 4.74503,14.00362 0.46293,5.78662 -0.0585,5.4543 0.84171,6.55907 0.90018,1.10478 1.22752,2.61873 2.65964,2.74148 1.43211,0.12275 4.58277,-0.9411 3.969,-0.0818 -0.61376,0.85927 -4.95102,4.74643 -7.6925,6.38314 -2.74148,1.6367 -6.5482,4.53557 -10.88816,4.59344 -4.33996,0.0579 -10.41591,1.79385 -17.30199,-0.81013 -6.88608,-2.60398 -14.40868,-6.24955 -18.92224,-10.47378 -4.51356,-4.22423 -13.71429,-15.566 -13.65642,-17.93852 z"
         id="path49" />
      <path
         style="opacity:1;fill:url(#linearGradient53)"
         d="m 520.79566,247.783 c 0,0 17.12839,-13.42495 25.34539,-14.81374 8.217,-1.38879 16.14467,-2.37251 20.88969,-1.38879 4.74503,0.98373 17.27218,4.59575 23.57349,8.11466 6.3013,3.51892 13.403,8.66653 13.98167,10.17105 0.57866,1.50453 2.66184,3.58771 2.19891,6.94395 -0.46293,3.35624 -3.5877,7.63833 -4.86076,8.217 -1.27305,0.57866 -4.97649,0.92585 -6.82821,0.23146 -1.85172,-0.69439 -5.6373,-4.85916 -8.09236,-6.98688 -2.45505,-2.12771 -5.56479,-6.13763 -13.01179,-9.57471 -7.44699,-3.43708 -16.36703,-8.42902 -23.48668,-8.26535 -7.11966,0.16367 -9.82022,-0.32734 -15.38501,1.55487 -5.56479,1.88221 -14.24569,5.70084 -14.32434,5.79648 z"
         id="path51" />
    </g>
    <g
       id="g87"
       style="fill:url(#linearGradient232);fill-opacity:1">
      <path
         style="opacity:1;fill:url(#linearGradient8);fill-opacity:1"
         d="m 661.98915,448.11573 c 0,0 -0.46293,-11.57323 18.51718,-41.20072 18.98011,-29.62749 36.69686,-54.69655 39.64293,-69.75422 2.94606,-15.05767 8.51085,-24.55054 4.91011,-58.9213 -3.60075,-34.37076 -4.09176,-41.24492 -7.85618,-55.15689 -3.76441,-13.91197 -13.7483,-41.24491 -20.13144,-50.57412 -6.38314,-9.3292 -12.39905,-18.4687 -18.18567,-24.13958 -5.78662,-5.67089 -10.82489,-10.5176 -16.22601,-14.03651 -5.40112,-3.51891 -10.7204,-7.24241 -12.07068,-7.85618 -1.35028,-0.61376 -7.69251,-4.33726 -3.23249,-0.77743 4.46001,3.55983 14.28023,10.55673 15.50776,11.62059 1.22753,1.06386 6.9969,6.46498 9.53379,9.28829 2.53689,2.82331 28.93971,41.34171 34.2634,62.17353 5.32368,20.83183 6.13381,26.50272 8.56419,41.77939 2.43038,15.27667 4.51356,44.09403 3.70344,54.27848 -0.81013,10.18445 -3.9349,32.05787 -7.52261,41.08499 -3.5877,9.02713 -10.18445,22.79928 -14.92947,29.97468 -4.74503,7.17541 -13.65642,18.51718 -19.55877,29.16456 -5.90235,10.64738 -10.99458,16.7812 -13.30923,27.31284 -2.31464,10.53165 -1.62025,14.92948 -1.62025,15.7396 z"
         id="path66" />
      <path
         style="opacity:1;fill:url(#linearGradient9);fill-opacity:1"
         d="m 599.36059,179.38263 c 0,0 25.20522,-9.49287 32.40671,-28.15129 7.2015,-18.65841 2.29139,-32.07937 2.29139,-32.07937 0,0 -0.32734,-11.45692 -11.78426,-21.93182 -11.45692,-10.474898 -7.11966,-4.746438 -7.11966,-4.746438 0,0 6.54681,7.610668 8.34718,15.466838 1.80038,7.85618 3.76442,21.76815 1.47304,30.27901 -2.29139,8.51085 -4.91011,17.43088 -7.447,21.52264 -2.53689,4.09176 -9.98389,12.02977 -12.35711,13.7483 -2.37322,1.71854 -4.58277,2.12772 -5.23745,3.43708 -0.65468,1.30936 -0.57284,2.45505 -0.57284,2.45505 z"
         id="path67" />
      <path
         style="opacity:1;fill:url(#linearGradient10);fill-opacity:1"
         d="m 540.11194,190.18487 c 0,0 7.52884,-14.32115 8.59269,-22.42283 1.06386,-8.10168 0.90019,-12.43894 0.90019,-12.43894 v -8.92003 c 0,0 -1.22753,-7.61067 -2.12771,-10.31123 -0.90019,-2.70056 -7.11966,-15.87601 -9.41104,-18.24923 -2.29139,-2.37322 -6.87416,-6.87416 -5.40112,-6.46498 1.47303,0.40918 8.75636,6.30131 10.96591,9.16554 2.20954,2.86423 6.38314,8.51085 8.10167,13.91197 1.71854,5.40112 3.10974,9.24737 3.19157,14.894 0.0818,5.64662 -0.2455,13.17545 -2.04587,20.04961 -1.80038,6.87415 -4.09176,12.52077 -6.30131,15.385 -2.20955,2.86423 -4.25543,5.07378 -6.46498,5.40112 z"
         id="path70" />
      <path
         style="opacity:1;fill:url(#linearGradient11);fill-opacity:1"
         d="m 401.12839,586.30018 c 0,0 6.48101,0.92586 8.91139,2.08318 2.43038,1.15733 6.82821,3.00905 10.76311,6.36529 3.9349,3.35623 3.9349,3.35623 3.9349,3.35623 0,0 3.24051,2.77758 6.24955,6.36528 3.00904,3.58771 9.25859,7.86981 5.09223,5.67089 -4.16637,-2.19891 -8.217,-5.43942 -10.53165,-6.82821 -2.31465,-1.38879 -3.00904,-3.24051 -9.83725,-7.40687 -6.82821,-4.16637 -11.22604,-6.59675 -13.54069,-7.75407 -2.31464,-1.15732 -2.89331,-2.08318 -1.04159,-1.85172 z"
         id="path71" />
      <path
         style="opacity:1;fill:url(#linearGradient12);fill-opacity:1"
         d="m 382.03255,465.59132 c 0,0 -5.09222,12.03617 -4.62929,18.05425 0.46293,6.01808 3.70343,15.7396 4.62929,18.05425 0.92586,2.31465 5.09222,9.14286 7.75407,11.92043 2.66184,2.77758 6.82821,6.59675 10.06872,8.5642 3.2405,1.96745 6.71247,5.09222 8.91139,5.32369 2.19891,0.23146 6.48101,1.73598 0,-3.47197 -6.48101,-5.20796 -14.81375,-10.99458 -18.86438,-19.44304 -4.05063,-8.44846 -7.40687,-16.0868 -7.63833,-22.68354 -0.23147,-6.59675 -0.23147,-9.25859 0,-12.03617 0.23146,-2.77758 0.11573,-4.74503 -0.23147,-4.2821 z"
         id="path72" />
      <path
         style="opacity:1;fill:url(#linearGradient13);fill-opacity:1"
         d="m 366.52441,450.54611 c 0,0 -9.14285,5.32369 -11.4575,10.64738 -2.31465,5.32369 -4.97649,12.1519 -5.43942,17.01266 -0.46293,4.86076 -0.11574,12.1519 0.57866,15.85533 0.69439,3.70344 3.35624,12.38337 5.20796,15.50814 1.85171,3.12478 6.13381,8.67993 9.25859,11.8047 3.12477,3.12478 8.79566,7.75407 13.07775,9.72152 4.2821,1.96745 14.11935,6.13382 17.12839,6.82821 3.00905,0.6944 16.54973,5.32369 19.67451,5.90235 3.12477,0.57866 7.63833,1.85172 5.55515,0.6944 -2.08318,-1.15733 -24.88246,-9.95299 -26.38698,-11.22604 -1.50452,-1.27306 -9.14286,-3.58771 -15.16094,-8.33273 -6.01808,-4.74503 -8.44846,-6.48102 -14.46655,-13.77216 -6.01808,-7.29113 -6.71247,-11.22604 -7.29114,-17.35985 -0.57866,-6.13382 -2.43038,-15.39241 -0.34719,-22.22062 2.08318,-6.82821 1.73598,-8.44846 3.81917,-11.8047 2.08318,-3.35624 6.24954,-9.25859 6.24954,-9.25859 z"
         id="path75" />
      <path
         style="opacity:1;fill:url(#linearGradient14);fill-opacity:1"
         d="m 333.19349,461.07776 c 0,0 -5.43942,3.12477 -9.95298,19.90597 -4.51357,16.78119 -2.54612,19.6745 -2.08319,22.22061 0.46293,2.54611 1.27306,8.217 2.31465,10.64738 1.04159,2.43038 2.77758,7.5226 6.94394,12.61483 4.16637,5.09222 11.57324,11.34177 15.04521,12.96202 3.47197,1.62026 12.4991,6.94394 20.94756,9.49006 8.44846,2.54611 32.75226,8.79566 38.19168,10.76311 5.43942,1.96745 11.94052,3.50771 19.06018,9.23617 7.11965,5.72846 11.08866,7.85618 14.56665,14.93492 3.47799,7.07874 4.4191,11.82518 4.6646,18.37199 0.24551,6.54681 0.0818,9.41104 -0.16367,10.7204 -0.2455,1.30936 0.65469,2.29139 2.29139,-1.88221 1.6367,-4.17359 3.19157,-7.93801 3.19157,-11.45692 0,-3.51891 0,-10.31122 -1.47303,-13.66647 -1.47304,-3.35524 -2.53689,-9.24737 -7.93801,-14.23931 -5.40112,-4.99194 -12.84812,-10.63857 -18.41291,-12.92995 -5.56479,-2.29139 -11.04774,-4.74644 -29.70616,-10.2294 -18.65841,-5.48295 -23.40485,-6.71048 -25.94174,-7.77433 -2.53689,-1.06386 -15.54867,-7.447 -17.18538,-8.75637 -1.6367,-1.30936 -4.99194,-3.35524 -9.16553,-8.18351 -4.1736,-4.82827 -8.42902,-12.27527 -9.57472,-15.79418 -1.14569,-3.51891 -3.10973,-12.1116 -2.86423,-16.77621 0.24551,-4.6646 0.49102,-9.57471 1.30937,-12.92995 0.81835,-3.35524 1.39119,-5.64662 3.10973,-9.41104 1.71854,-3.76442 2.29139,-5.89213 2.94607,-6.62865 0.65468,-0.73651 0.82176,-2.17242 -0.12105,-1.20896 z"
         id="path77" />
      <path
         style="opacity:1;fill:url(#linearGradient15);fill-opacity:1"
         d="m 309.0095,458.60414 c 0,0 -19.96778,4.91011 -27.16927,8.8382 -7.20149,3.92808 -18.65841,13.09362 -22.91384,18.33107 -4.25543,5.23745 -10.80224,13.7483 -13.42096,21.27714 -2.61873,7.52883 -5.56479,16.69436 -5.56479,23.56852 0,6.87415 -0.32734,16.36703 0.98202,20.62245 1.30936,4.25543 5.23745,13.09363 7.52883,17.02171 2.29139,3.92809 4.25543,5.56479 9.16554,10.80224 4.91011,5.23745 10.4749,9.49288 18.65841,13.09362 8.18352,3.60075 12.1116,7.85618 25.20523,10.14756 13.09362,2.29139 26.51458,4.58277 32.07937,4.91011 5.56479,0.32734 11.78426,0.32734 18.33107,1.96404 6.54682,1.63671 13.42097,3.92809 16.36703,3.27341 2.94607,-0.65468 5.56479,-1.30936 -2.94606,-3.60075 -8.51086,-2.29138 -21.93182,-4.9101 -27.49661,-5.56479 -5.56479,-0.65468 -13.09362,-2.29138 -22.91384,-4.25542 -9.82022,-1.96405 -28.80597,-7.85618 -33.71608,-11.45692 -4.91011,-3.60075 -15.05767,-8.51086 -20.9498,-16.69437 -5.89213,-8.18352 -11.78426,-17.34905 -12.43894,-24.22321 -0.65468,-6.87415 -0.98202,-17.67639 0.65468,-23.56852 1.63671,-5.89213 2.29139,-14.40298 5.89213,-19.96777 3.60075,-5.56479 9.16554,-14.07565 13.74831,-18.00373 4.58277,-3.92809 10.14756,-9.82022 16.03969,-12.43894 5.89213,-2.61873 16.36702,-8.8382 16.36702,-8.8382 0,0 -1.96404,0.65468 0.65469,-0.32734 2.61872,-0.98202 7.85617,-4.91011 7.85617,-4.91011 z"
         id="path79" />
      <path
         style="opacity:1;fill:url(#linearGradient16);fill-opacity:1"
         d="m 452.71201,484.13671 c 0,0 9.49288,-17.02171 15.71235,-23.56853 6.21947,-6.54681 13.09362,-13.7483 16.36703,-17.02171 3.2734,-3.2734 8.51085,-8.18351 11.12958,-12.43894 2.61872,-4.25542 9.49287,-15.05766 10.80224,-20.62245 1.30936,-5.56479 4.58276,-13.42097 4.25542,-21.27714 -0.32734,-7.85617 -0.0202,-13.88787 -0.71461,-20.60034 -0.6944,-6.71248 0.11573,-10.76311 1.50452,-3.00905 1.38878,7.75407 3.47197,15.27668 3.12477,23.26221 -0.3472,7.98553 -0.23146,12.38336 -2.89331,21.87342 -2.66184,9.49005 -10.99457,24.99819 -16.78119,31.01627 -5.78662,6.01809 -15.04521,14.81375 -20.0217,20.13744 -4.97649,5.32368 -13.42496,15.85533 -16.20253,22.45207 -2.77758,6.59675 -5.55516,12.26764 -5.32369,21.98915 0.23146,9.72152 0.23146,15.27668 2.77757,21.87342 2.54612,6.59675 6.48102,10.87885 5.43943,11.92044 -1.0416,1.04159 -2.60398,-0.28933 -3.29838,-1.33093 -0.69439,-1.04159 -3.7613,-5.61302 -4.62929,-7.58047 -0.86799,-1.96745 -2.95118,-4.28209 -4.1085,-10.70524 -1.15732,-6.42315 -2.19892,-12.84629 -1.62025,-19.26944 0.57866,-6.42315 4.50539,-16.78265 4.48054,-17.10018 z"
         id="path81" />
      <path
         style="opacity:1;fill:url(#linearGradient17);fill-opacity:1"
         d="m 255.53707,326.13382 c 0,0 3.24051,-1.38879 5.09223,-8.5642 1.85171,-7.17541 4.16636,-21.75768 4.39783,-12.73056 0.23146,9.02712 0.23146,16.89693 1.15732,22.22062 0.92586,5.32368 2.77758,14.11934 4.39783,18.05424 1.62025,3.93491 5.78662,8.5642 9.49005,12.03617 3.70344,3.47197 7.63834,7.40687 13.42496,9.25859 5.78662,1.85172 14.58228,2.66185 10.53164,3.12477 -4.05063,0.46293 -8.67992,1.50453 -15.97106,-0.81012 -7.29114,-2.31465 -14.00362,-5.67089 -16.89693,-9.37432 -2.89331,-3.70344 -7.40687,-10.99458 -9.25859,-16.434 -1.85172,-5.43942 -2.19891,-8.67993 -2.19891,-8.67993 0,0 -4.9765,0.3472 -6.01809,0.92586 -1.04159,0.57866 -7.1754,4.6293 -10.18445,8.217 -3.00904,3.5877 -6.94394,8.217 -9.25858,13.54069 -2.31465,5.32369 -4.2821,10.30018 -5.09223,15.62387 -0.81013,5.32369 -1.38879,11.92043 -0.69439,17.70705 0.69439,5.78662 4.05063,17.01266 6.36528,20.60036 2.31464,3.5877 5.78662,9.83725 13.19349,15.27667 7.40687,5.43942 15.97106,9.95299 23.37794,11.8047 7.40687,1.85172 21.75768,3.47198 23.6094,3.47198 1.85172,0 18.86438,0.81012 32.52079,-2.77758 13.65642,-3.5877 22.33635,-5.78662 30.66908,-10.87884 8.33273,-5.09223 21.64196,-16.66546 23.37794,-18.40145 1.73599,-1.73599 6.59675,-6.71248 12.03617,-18.98011 5.43942,-12.26763 7.63833,-22.10488 8.33273,-27.42857 0.69439,-5.32369 1.85172,-23.72514 0.69439,-30.43761 -1.15732,-6.71248 -7.5226,-29.97469 -10.53164,-37.72876 -3.00904,-7.75406 -8.33273,-25.57685 -8.9114,-31.59493 -0.57866,-6.01809 -2.43038,-22.68355 -1.62025,-31.36347 0.81013,-8.67993 3.35624,-21.75769 6.13382,-28.2387 2.77757,-6.48102 3.70343,-10.53165 11.68897,-18.63291 7.98553,-8.10127 13.54068,-13.88789 21.06329,-17.24413 7.5226,-3.35624 10.41591,-6.94394 23.49367,-7.63833 13.07776,-0.6944 26.15551,1.27305 31.94213,2.89331 5.78662,1.62025 15.62387,6.48101 20.48463,10.06871 4.86076,3.58771 10.18445,7.8698 13.30922,11.45751 3.12478,3.5877 6.13382,7.29114 5.90235,7.98553 -0.23146,0.69439 1.0416,4.51356 -1.38878,2.19891 -2.43038,-2.31464 -3.35624,-4.62929 -9.95299,-9.49005 -6.59674,-4.86076 -14.00361,-9.83725 -22.45208,-12.73056 -8.44846,-2.89331 -17.35985,-7.75407 -31.8264,-5.32369 -14.46654,2.43038 -26.27125,4.51356 -33.56239,11.45751 -7.29114,6.94394 -16.89692,17.35985 -20.83182,25.69258 -3.9349,8.33273 -6.11979,18.73313 -6.77448,27.08032 -0.65468,8.34718 -0.65468,23.15934 1.06386,31.83387 1.71854,8.67453 7.52883,28.06945 10.06572,35.35278 2.53689,7.28333 6.79232,16.44887 8.26535,24.30504 1.47304,7.85617 3.10974,21.1953 2.86423,26.84193 -0.2455,5.64662 -0.16367,21.03163 -2.86423,28.06945 -2.70056,7.03782 -4.74643,15.79418 -10.88407,24.87788 -6.13764,9.0837 -8.75636,12.60262 -15.63051,18.33108 -6.87415,5.72846 -22.79303,18.59156 -37.49104,22.17926 -14.69802,3.5877 -30.09042,6.59675 -41.66366,6.36528 -11.57323,-0.23146 -34.95117,-1.85172 -45.13562,-8.33273 -10.18445,-6.48101 -23.6094,-15.04521 -27.54431,-22.45208 -3.9349,-7.40687 -8.79565,-18.05425 -8.79565,-25.22965 0,-7.17541 -1.38879,-15.97107 0.81012,-24.07234 2.19892,-8.10126 4.74503,-18.05425 9.49006,-23.37794 4.74502,-5.32369 10.41591,-11.68897 15.62387,-15.0452 5.20795,-3.35624 6.71247,-3.47198 8.56419,-4.86076 z"
         id="path83" />
      <path
         style="opacity:1;fill:url(#linearGradient18);fill-opacity:1"
         d="m 563.8481,176.83906 c 0,0 11.11031,-16.20253 12.73056,-26.38698 1.62026,-10.18445 2.54611,-18.51718 1.85172,-23.6094 -0.69439,-5.09223 -1.85172,-16.89693 -5.09222,-21.75769 -3.24051,-4.86076 -8.33273,-13.424954 -12.73056,-17.822784 -4.39783,-4.39783 -12.96203,-10.647378 -17.59132,-12.73056 -4.6293,-2.083183 -19.67451,-8.79566 -28.9331,-10.647378 -9.25859,-1.851718 -21.98915,-3.703436 -21.98915,-3.703436 0,0 -6.94394,-0.694394 -18.51718,-0.694394 -11.57323,0 -29.62748,0.694394 -42.58951,4.39783 -12.96202,3.703436 -34.48824,11.110307 -40.27486,13.887884 -5.78662,2.777577 -26.84991,16.433996 -28.70163,18.285714 -1.85172,1.851718 -10.18445,7.638334 -19.44304,16.433994 -9.25859,8.79566 -17.59132,16.89693 -23.84087,26.61845 -6.24954,9.72152 -14.11934,21.75768 -16.66546,26.38698 -2.54611,4.62929 -9.02712,18.51718 -10.87884,24.3038 -1.85172,5.78661 -6.94394,22.68354 -8.10127,31.71066 -1.15732,9.02713 -3.9349,16.434 -3.9349,28.00724 0,11.57323 -0.23146,17.12839 0.6944,27.31284 0.92586,10.18445 3.47197,25.92405 4.86076,32.63652 1.38879,6.71248 4.39783,16.20254 6.94394,19.90597 2.54611,3.70344 9.02712,14.11935 10.87884,16.89693 1.85172,2.77758 12.4991,13.65642 14.81375,15.04521 2.31464,1.38878 9.49005,5.32369 12.03616,5.78661 2.54611,0.46293 8.33273,2.77758 15.27668,0.6944 6.94394,-2.08318 15.7396,-3.70344 19.6745,-7.63834 3.9349,-3.9349 10.18445,-10.64738 12.26763,-15.27667 2.08318,-4.62929 6.24955,-14.11935 6.01808,-17.12839 -0.23146,-3.00904 -0.69439,-11.8047 -1.38879,-15.04521 -0.69439,-3.24051 -2.08318,-10.64738 -3.70343,-15.27667 -1.62026,-4.6293 -7.17541,-28.93309 -7.8698,-36.57143 -0.6944,-7.63834 -0.46293,-23.37794 1.15732,-31.4792 1.62025,-8.10127 4.6293,-23.37794 6.71248,-28.00724 2.08318,-4.62929 13.19349,-23.84087 16.89692,-27.77577 3.70344,-3.9349 3.24051,-3.70343 4.16637,-4.16636 0.92586,-0.46293 9.25859,-8.10127 15.04521,-11.8047 5.78662,-3.70344 21.29475,-10.64738 26.15551,-11.34178 4.86076,-0.69439 18.74865,-2.54611 22.68355,-2.31464 3.9349,0.23146 11.34177,1.15732 15.50813,2.08318 4.16637,0.92586 10.87885,1.62025 16.20254,4.16637 5.32368,2.54611 14.58227,7.40687 16.43399,8.79566 1.85172,1.38878 8.5642,6.24954 10.18445,8.10126 1.62025,1.85172 7.40687,6.24955 7.63834,7.17541 0.23146,0.92586 6.94394,8.10126 5.32369,4.86076 -1.62026,-3.24051 -5.09223,-9.95299 -7.40688,-12.26763 -2.31464,-2.31465 -8.33273,-9.72152 -11.57323,-12.03617 -3.24051,-2.31465 -15.27668,-9.49005 -20.3689,-11.11031 -5.09222,-1.62025 -15.04521,-5.78662 -25.92405,-6.71248 -10.87884,-0.92585 -20.3689,-2.31464 -34.95118,2.31465 -14.58227,4.6293 -29.16455,10.87885 -39.58047,22.22062 -10.41591,11.34177 -17.35985,23.37794 -21.06329,30.78481 -3.70343,7.40687 -8.56419,24.07233 -9.49005,28.70162 -0.92586,4.6293 -2.77758,16.20254 -2.08318,24.76673 0.69439,8.5642 0.92586,18.98011 2.31464,24.99819 1.38879,6.01809 4.6293,18.28572 6.01809,24.3038 1.38879,6.01808 4.86076,16.20253 4.86076,24.3038 0,8.10126 -1.38879,21.06329 -4.86076,25.22966 -3.47197,4.16636 -11.11031,12.03616 -16.434,13.42495 -5.32369,1.38879 -16.20253,3.70344 -22.68354,0.92586 -6.48102,-2.77758 -18.98011,-11.8047 -23.14648,-17.12839 -4.16636,-5.32369 -12.73056,-18.74865 -15.50814,-35.87704 -2.77757,-17.12839 -5.09222,-25.92405 -4.62929,-37.96021 0.46293,-12.03617 -0.23146,-21.75769 0.92586,-30.55335 1.15732,-8.79566 6.01808,-31.01627 8.33273,-37.49729 2.31465,-6.48101 5.78662,-18.51718 11.11031,-28.70162 5.32369,-10.18445 9.95298,-18.74865 15.97106,-27.08138 6.01809,-8.33273 8.79566,-13.42495 18.28572,-22.91501 9.49005,-9.49005 12.73056,-13.19349 23.84087,-21.526218 11.1103,-8.33273 17.59132,-13.19349 31.24774,-19.211573 13.65642,-6.018083 25.69258,-9.952984 37.03435,-12.499096 11.34178,-2.546112 29.39603,-4.629295 35.87704,-4.39783 6.48101,0.231465 14.11935,-0.462929 24.76673,1.851718 10.64737,2.314647 24.07233,5.323689 31.94213,8.564195 7.8698,3.240507 19.6745,11.110308 24.53526,15.045208 4.86076,3.934901 13.42496,16.202536 15.04521,20.368896 1.62025,4.16637 4.39783,10.18445 5.09222,18.98011 0.6944,8.79566 0.92586,19.44304 -0.69439,26.15552 -1.62025,6.71247 -2.08318,9.72151 -4.39783,14.11934 -2.31465,4.39783 -2.31465,8.10127 -2.31465,8.10127 z"
         id="path85" />
    </g>
    <g
       id="g103"
       style="fill:#ffffff;fill-opacity:1">
      <path
         style="opacity:1;fill:#ffffff;fill-opacity:1"
         d="m 625.38416,190.34854 26.67826,-33.71608 5.23745,4.4191 -19.64044,21.11347 25.85991,-11.94793 4.4191,4.25542 -18.33107,21.44081 23.56852,-11.94793 3.60074,6.0558 -38.29884,18.65841 -3.60075,-3.60074 19.64043,-22.42283 -26.18724,11.12958 z"
         id="path88" />
      <path
         style="opacity:1;fill:#ffffff;fill-opacity:1"
         d="m 673.99424,231.26611 c 0,0 7.03782,-3.43707 9.65654,-6.87415 2.61873,-3.43707 5.07378,-5.56479 4.58277,-7.52883 -0.49101,-1.96404 -1.14569,-6.54681 -2.12771,-7.85617 -0.98202,-1.30937 -3.10974,-3.43708 -4.74644,-4.4191 -1.6367,-0.98202 -5.56479,-1.96405 -7.03782,-1.96405 -1.47303,0 -3.27341,-0.49101 -8.18352,1.47304 -4.9101,1.96404 -13.25729,5.56479 -15.22133,8.01984 -1.96405,2.45505 -4.58277,5.72846 -4.91011,8.01984 -0.32734,2.29139 -0.81835,4.74644 0,6.87416 0.81835,2.12771 1.6367,3.76441 2.94606,5.40112 1.30937,1.6367 2.61873,2.29138 4.58277,3.10973 1.96405,0.81835 5.23745,1.47303 7.69251,0.98202 2.45505,-0.49101 5.23744,-1.47303 6.71048,-1.80037 1.47303,-0.32734 6.0558,-3.43708 6.0558,-3.43708 z"
         id="path89" />
      <path
         style="opacity:1;fill:#ffffff;fill-opacity:1"
         d="m 653.53545,243.05037 39.60821,-7.85617 1.6367,12.27527 c 0,0 0.81836,5.89213 -1.6367,7.52884 -2.45505,1.6367 -5.23745,5.23744 -9.82022,4.74643 -4.58276,-0.49101 -9.16553,-5.40112 -9.98388,-4.25542 -0.81835,1.14569 -16.85804,13.09362 -16.85804,13.09362 v -7.20149 l 13.09362,-10.80224 v -4.74644 l -15.54868,3.43708 z"
         id="path93" />
      <path
         style="opacity:1;fill:#ffffff;fill-opacity:1"
         d="m 692.81632,264.65485 4.74644,-2.78239 2.29138,23.89586 -5.72846,0.49101 -0.49101,-10.31123 -34.86177,4.4191 -0.32734,-6.71048 34.53443,-3.10974 z"
         id="path97" />
      <path
         style="opacity:1;fill:#ffffff;fill-opacity:1"
         d="m 661.06429,291.16944 38.46251,-0.98202 0.32734,5.56479 -15.87601,0.32734 v 11.94793 l 14.73032,-0.81835 1.6367,6.87415 -37.48049,1.47303 -0.16367,-6.71048 16.03969,-0.16367 v -11.45692 l -17.34905,0.32734 z"
         id="path99" />
      <path
         style="opacity:1;fill:#ffffff;fill-opacity:1"
         d="m 659.91859,324.88552 c 0,0 7.85618,4.74644 14.40299,2.94606 6.54681,-1.80037 26.51458,-8.83819 26.51458,-8.83819 l -1.30936,8.01984 -16.03969,4.58277 c 0,0 -2.29138,0.81835 0.32734,1.80037 2.61873,0.98202 9.32921,3.92809 9.32921,3.92809 l 2.45506,0.81835 0.16367,7.03782 -20.9498,-11.45692 -15.05767,-1.30936 z"
         id="path101" />
    </g>
    <g
       id="g117"
       style="fill:#ffffff;fill-opacity:1">
      <path
         style="opacity:1;fill:#ffffff;fill-opacity:1"
         d="m 263.8365,506.72321 4.25543,-0.32735 c 0,0 -0.65468,12.11161 3.92809,10.14756 4.58276,-1.96404 4.05955,-1.99731 5.73767,-4.08049 1.67812,-2.08318 3.12477,-4.91862 4.91862,-6.94394 1.79385,-2.02532 3.58771,-3.7613 5.61302,-4.39783 2.02532,-0.63653 3.52984,-1.50452 5.90235,-0.86799 2.37252,0.63652 3.35624,1.27305 4.33997,2.66184 0.98372,1.38879 1.90958,2.95118 2.19891,4.51356 0.28933,1.56239 0.46293,3.41411 -0.11573,4.16637 -0.57866,0.75226 -2.54611,1.21519 -3.18264,1.09946 -0.63653,-0.11574 -1.09946,-0.23147 -1.04159,-1.50453 0.0579,-1.27305 0.40506,-2.8933 -0.57866,-3.52983 -0.98373,-0.63653 -2.02532,-2.31465 -4.39783,-1.79385 -2.37252,0.52079 -4.2821,0.40506 -6.19169,3.52983 -1.90958,3.12478 -3.18264,6.88608 -5.09222,8.3906 -1.90958,1.50452 -3.24051,3.18264 -6.71248,3.18264 -3.47197,0 -5.78662,-0.69439 -7.349,-3.81917 -1.56239,-3.12477 -2.25678,-5.61302 -2.23222,-10.42688 z"
         id="path103" />
      <path
         style="opacity:1;fill:#ffffff;fill-opacity:1"
         d="m 270.52441,535.32007 28.4123,-12.32549 -3.12477,-6.36528 4.62929,-1.21519 5.55515,15.97106 -5.09222,1.04159 -1.15732,-4.33996 -27.08138,12.61483 z"
         id="path104" />
      <path
         style="opacity:1;fill:#ffffff;fill-opacity:1"
         d="m 276.5425,555.8047 3.12477,3.12478 13.65642,-8.85353 0.5208,1.44666 -1.44666,4.68716 -4.33996,10.24231 3.5877,4.05063 6.59675,-17.01265 c 0,0 1.62025,2.31464 4.10849,2.14104 2.48825,-0.17359 4.51357,-0.40506 6.24955,-1.67811 1.73599,-1.27306 3.87704,-3.52984 4.33997,-4.86076 0.46293,-1.33093 0.86799,-1.50453 0.86799,-3.12478 0,-1.62025 -0.23147,-3.00904 -0.75226,-4.22423 -0.5208,-1.21519 -1.04159,-2.60398 -2.08318,-3.87703 -1.0416,-1.27306 -2.95118,-3.06691 -3.41411,-3.52984 -0.46293,-0.46293 -1.62025,-1.38879 -1.62025,-1.38879 l -21.64196,16.54973 z"
         id="path105" />
      <path
         style="display:inline;opacity:1;fill:#ffffff;fill-opacity:1"
         d="m 319.97541,550.66868 c 0,0 1.14569,-1.06386 2.12771,-1.30936 0.98202,-0.24551 2.12772,-0.73652 3.0279,-0.73652 0.90019,0 2.20955,-0.0818 3.0279,0.0818 0.81836,0.16367 2.7824,0.57285 3.51891,1.06386 0.73652,0.49101 1.96405,1.71854 2.37322,2.29138 0.40918,0.57285 1.63671,1.71854 2.04588,3.27341 0.40918,1.55487 1.14569,3.92809 0.81835,6.13764 -0.32734,2.20955 -1.14569,4.58276 -2.53689,8.10168 -1.39119,3.51891 -2.70056,6.71048 -4.6646,8.67452 -1.96404,1.96404 -3.0279,4.09176 -7.28333,5.40112 -4.25542,1.30936 -8.92003,1.06386 -10.22939,0 -1.30936,-1.06386 -4.25543,-3.27341 -4.58277,-5.23745 -0.32734,-1.96404 -0.81835,-5.23745 -0.32734,-7.28333 0.49101,-2.04588 1.30936,-4.91011 2.53689,-7.44699 1.22753,-2.53689 2.61873,-5.15562 3.92809,-6.79232 1.30936,-1.6367 3.60074,-3.84625 4.17359,-4.4191 0.57285,-0.57285 2.04588,-1.80037 2.04588,-1.80037 z"
         id="path111" />
      <path
         style="opacity:1;fill:#ffffff;fill-opacity:1"
         d="m 336.42427,590.11322 4.1736,0.90018 6.71048,-22.42283 6.87415,27.90579 3.2734,0.2455 9.00187,-34.61626 -5.15561,-0.16367 -5.07378,24.14136 -6.30131,-29.46065 -3.84625,-0.98202 z"
         id="path113" />
      <path
         style="opacity:1;fill:#ffffff;fill-opacity:1"
         d="m 383.47948,587.74 -2.94606,-0.57285 0.40917,-3.43707 8.51086,0.81835 -2.86423,12.27527 c 0,0 -0.24551,2.53689 -1.22753,3.2734 -0.98202,0.73652 -2.29139,1.96405 -5.15562,1.55487 -2.86423,-0.40917 -6.21947,-0.65468 -7.85617,-2.94606 -1.6367,-2.29139 -3.84625,-5.23745 -3.68258,-8.01985 0.16367,-2.78239 -0.81835,-6.38314 0.32734,-9.0837 1.14569,-2.70056 1.80037,-5.15561 3.51891,-7.20149 1.71854,-2.04588 3.68258,-4.99194 6.13764,-6.21947 2.45505,-1.22753 3.60074,-1.6367 5.81029,-1.80037 2.20955,-0.16368 3.92809,-0.40918 5.23745,0.57284 1.30936,0.98202 2.86423,1.6367 3.68258,2.70056 0.81835,1.06386 1.47304,1.96404 1.47304,1.96404 l -3.27341,3.27341 -3.92809,-4.00992 c 0,0 -1.80037,-1.6367 -4.82827,0.49101 -3.0279,2.12771 -4.99194,3.35524 -7.03782,8.42902 -2.04588,5.07378 -2.7824,10.80224 -1.80038,13.01179 0.98203,2.20955 3.19157,4.25542 4.91011,4.74643 1.71854,0.49102 3.43708,1.47304 4.00992,-1.22752 0.57285,-2.70056 0.57285,-8.59269 0.57285,-8.59269 z"
         id="path115" />
    </g>
    <g
       id="g139"
       style="fill:#ffffff;fill-opacity:1">
      <path
         style="opacity:1;fill:#ffffff;fill-opacity:1"
         d="m 410.48508,505.0865 -22.25916,-60.88534 4.58277,-3.60075 43.20895,38.29885 -4.91011,5.89213 -8.18351,-8.51086 -12.76628,8.8382 5.23745,16.03969 z"
         id="path121" />
      <path
         style="opacity:1;fill:#ffffff;fill-opacity:1"
         d="m 441.58243,468.42436 4.25543,-6.87415 -25.20523,-27.16927 36.33481,14.40298 1.30936,-1.96404 -18.98575,-31.42469 27.16926,18.00373 4.58277,-5.89213 -43.20895,-27.82395 -1.96405,3.92809 18.98576,33.71607 -33.38874,-14.73032 -4.91011,5.89213"
         id="path125" />
      <path
         style="opacity:1;fill:#ffffff;fill-opacity:1"
         d="m 431.43487,390.5173 50.73779,19.96778 4.58277,-13.74831 c 0,0 2.29138,-11.78426 -4.58277,-14.73032 -6.87415,-2.94607 -12.1116,-6.21947 -18.65841,0 -6.54681,6.21947 0.98202,-0.65468 -6.54681,-5.56479 -7.52883,-4.91011 -15.05767,-5.23745 -18.00373,-0.32734 -2.94607,4.91011 -7.52884,14.40298 -7.52884,14.40298 z"
         id="path127" />
      <path
         style="opacity:1;fill:#ffffff;fill-opacity:1"
         d="m 441.58243,365.31208 6.21947,-1.30936 -0.65468,-8.51086 42.88162,-1.30936 -0.32734,-6.54681 -41.8996,1.96404 v -9.82022 l -5.89213,-1.96404 z"
         id="path133" />
      <path
         style="opacity:1;fill:#ffffff;fill-opacity:1"
         d="m 437.327,326.35855 46.15502,-12.76628 2.29139,5.89213 -46.48236,13.09362 z"
         id="path134" />
      <path
         style="opacity:1;fill:#ffffff;fill-opacity:1"
         d="m 423.90604,294.27917 6.54681,-2.61872 4.91011,10.4749 36.98949,-17.34905 3.2734,6.21947 -38.62619,16.36703 2.61873,10.14755 -3.92809,0.98203 z"
         id="path135" />
      <path
         style="opacity:1;fill:#ffffff;fill-opacity:1"
         d="m 416.70455,255.65299 7.52883,-0.98203 -0.65468,9.49288 42.88161,-3.92809 2.94607,4.91011 -44.84566,6.87416 1.96405,11.45692 -6.21948,2.29138 z"
         id="path136" />
      <path
         style="opacity:1;fill:#ffffff;fill-opacity:1"
         d="m 416.37721,235.03053 1.6367,7.52883 51.71981,3.60075 v -5.89213 z"
         id="path137" />
      <path
         style="opacity:1;fill:#ffffff;fill-opacity:1"
         d="m 421.942,215.3901 47.79172,20.94979 2.94607,-5.89213 -34.04342,-15.385 39.28086,4.9101 -32.40671,-23.56852 41.57225,8.51086 1.96404,-3.92809 -55.64789,-11.45692 -1.96405,4.91011 32.40672,20.29512 -39.28087,-5.56479 z"
         id="path138" />
    </g>
    <g
       id="g173"
       style="fill:#ffffff;fill-opacity:1">
      <path
         style="opacity:1;fill:#ffffff;fill-opacity:1;fill-rule:evenodd"
         d="m 245.35262,402.51718 20.13743,-27.77577 c 0,0 15.50814,3.70344 11.57324,14.35081 -3.9349,10.64738 -9.72152,4.51357 -9.72152,4.51357 0,0 3.64557,3.99276 3.24051,5.96021 -0.40506,1.96745 0.28933,4.05064 -1.90958,6.65462 -2.19892,2.60397 -5.72876,5.38155 -9.95299,4.51356 -4.22423,-0.86799 -6.30741,-2.02532 -9.60579,-4.2821 -3.29837,-2.25678 -4.39783,-3.29837 -4.39783,-3.29837 z"
         id="path155" />
      <path
         style="opacity:1;fill:#ffffff;fill-opacity:1;fill-rule:evenodd"
         d="m 274.47507,419.97795 4.91011,1.47304 4.58277,-15.22134 2.94606,0.16367 2.45506,16.85804 4.58276,0.49101 -2.78239,-17.18538 -0.1604,-0.91504 c 0,0 2.54611,0.0868 3.38517,-0.28933 0.83906,-0.37613 3.73237,-1.44665 5.17903,-4.0217 1.44665,-2.57504 1.30199,-7.0886 1.30199,-7.0886 0,0 -0.3472,-3.61664 -1.07053,-4.39783 -0.72332,-0.7812 -1.82278,-1.99639 -3.03797,-2.92225 -1.21519,-0.92586 -3.73237,-2.05425 -5.20796,-2.43038 -1.47559,-0.37613 -4.88969,-0.40506 -5.43942,-0.49186 -0.54973,-0.0868 -11.64428,35.97795 -11.64428,35.97795 z"
         id="path161" />
      <path
         style="opacity:1;fill:#ffffff;fill-opacity:1;fill-rule:evenodd"
         d="m 308.60032,426.11559 2.53689,-9.16554 8.26535,-1.30936 3.51891,8.8382 5.15562,-1.47304 -12.43894,-35.27094 -3.27341,-0.16367 -8.59269,38.21701 z"
         id="path167" />
      <path
         style="opacity:1;fill:#ffffff;fill-opacity:1;fill-rule:evenodd"
         d="m 342.0709,419.48694 5.81029,-1.22752 -5.48295,-38.05335 -4.74644,1.63671 4.99194,28.06945 -14.64849,-25.69623 -4.50093,2.37322 z"
         id="path169" />
      <path
         style="opacity:1;fill:#ffffff;fill-opacity:1;fill-rule:evenodd"
         d="m 346.24449,378.1602 11.78426,-6.46498 2.45506,3.76442 -8.26535,4.58276 5.81029,9.73839 6.71048,-3.84626 2.45506,4.1736 -6.21947,4.00992 5.23745,9.24737 7.11965,-5.64662 3.0279,3.76441 -11.12958,7.93801 z"
         id="path171" />
    </g>
    <g
       id="g191"
       style="fill:#ffffff;fill-opacity:1">
      <path
         style="opacity:1;fill:#ffffff;fill-opacity:1;fill-rule:evenodd"
         d="m 312.94033,198.36528 5.32368,1.15732 -2.77757,12.03617 11.11031,1.85172 1.85171,-8.33273 4.39783,0.69439 -1.85171,8.10127 12.49909,3.00904 2.31465,-10.64738 4.86076,0.92586 -3.24051,15.04521 -38.88607,-8.79566 z"
         id="path189" />
      <path
         style="opacity:1;fill:#ffffff;fill-opacity:1;fill-rule:evenodd"
         d="m 304.6076,264.79566 39.349,-13.88788 0.92586,4.86076 -9.02712,3.70343 0.23146,9.72152 10.18445,2.77758 0.23146,4.62929 -40.96926,-6.94394 z"
         id="path185" />
      <path
         style="opacity:1;fill:#ef30f2;fill-opacity:1;fill-rule:evenodd"
         d="m 317.56962,266.41591 14.11935,-5.78661 -0.46293,7.40687 z"
         id="path183" />
      <path
         style="opacity:1;fill:#ffffff;fill-opacity:1;fill-rule:evenodd"
         d="m 312.4774,307.15371 39.81193,-9.02713 -2.31465,-4.39783 -15.50813,3.70344 -0.92586,-3.9349 13.65642,-10.87884 -1.62026,-4.39783 -14.81374,9.95298 c 0,0 -5.55515,-4.86076 -9.49005,-3.47197 -3.9349,1.38879 -11.57324,2.77757 -11.34178,9.25859 0.23147,6.48101 2.54612,13.19349 2.54612,13.19349 z"
         id="path179" />
      <path
         style="opacity:1;fill:#ef30f2;fill-opacity:1;fill-rule:evenodd"
         d="m 316.18083,300.90416 c 0,0 -0.69439,-11.57324 5.32369,-9.49005 6.01808,2.08318 7.63834,6.94394 7.63834,6.94394 z"
         id="path181" />
      <path
         style="opacity:1;fill:#ffffff;fill-opacity:1;fill-rule:evenodd"
         d="m 304.6076,242.34358 -0.46293,5.78662 40.73779,-5.55515 0.46293,-5.32369 -36.33996,-13.88789 -1.62026,6.01809 28.2387,9.72151 z"
         id="path187" />
      <path
         style="opacity:1;fill:#ffffff;fill-opacity:1;fill-rule:evenodd"
         d="m 321.73599,335.85534 37.03435,-11.57324 -3.2405,-12.73056 c 0,0 -5.32369,-7.8698 -11.11031,-5.78662 -5.78662,2.08318 -6.94394,1.62025 -8.33273,4.62929 -1.38879,3.00905 -2.54611,4.86076 -2.54611,4.86076 0,0 -2.77758,-1.62025 -5.55516,-0.92586 -2.77757,0.6944 -8.10126,1.15733 -9.72152,5.32369 -1.62025,4.16637 0.92586,10.41592 0.92586,10.41592 z"
         id="path173" />
      <path
         style="opacity:1;fill:#ef30f2;fill-opacity:1;fill-rule:evenodd"
         d="m 339.55877,324.97649 c 0,0 -2.31465,-11.57323 3.24051,-12.73056 5.55515,-1.15732 9.95298,6.94394 9.95298,6.94394 z"
         id="path177" />
      <path
         style="opacity:1;fill:#ef30f2;fill-opacity:1;fill-rule:evenodd"
         d="m 324.51356,330.06872 11.11031,-3.00904 c 0,0 -0.69439,-8.33274 -3.00904,-7.63834 -2.31465,0.69439 -4.6293,1.15732 -6.24955,2.31465 -1.62025,1.15732 -3.24051,3.70343 -3.24051,4.62929 0,0.92586 1.38879,3.70344 1.38879,3.70344 z"
         id="path175" />
    </g>
    <g
       id="g211"
       style="fill:#ffffff;fill-opacity:1">
      <path
         style="opacity:1;fill:#ffffff;fill-opacity:1;fill-rule:evenodd"
         d="m 324.74503,168.27486 c 0,0 4.06857,-12.46075 9.55153,-13.19726 5.48295,-0.73652 6.71048,-0.98203 9.32921,-0.16367 2.61872,0.81835 5.56479,3.43707 5.89213,4.17359 0.32734,0.73651 2.20954,3.19157 2.04587,4.58277 -0.16367,1.39119 -0.32734,3.51891 -0.32734,3.51891 l 17.75823,0.90018 -0.73652,5.07378 -18.98575,0.40918 -1.80037,2.45505 12.92995,8.34719 -3.27341,4.6646 z"
         id="path191" />
      <path
         style="opacity:1;fill:#ffffff;fill-opacity:1;fill-rule:evenodd"
         d="m 344.03494,141.73847 28.15129,24.2232 10.4749,-12.76628 -3.60075,-2.61873 -8.18351,8.8382 -9.49288,-7.85618 6.54681,-6.54681 -3.60074,-3.2734 -6.21947,4.58277 -7.85618,-6.21948 7.52884,-8.83819 -2.94607,-2.94607 z"
         id="path195" />
      <path
         style="opacity:1;fill:#ffffff;fill-opacity:1;fill-rule:evenodd"
         d="m 374.15027,111.62313 c 0,0 -9.16553,3.27341 -8.51085,7.52884 0.65468,4.25543 2.94606,8.83819 4.58277,10.14756 1.6367,1.30936 9.49287,2.94606 11.78426,3.2734 2.29138,0.32734 8.18351,-2.29138 8.83819,3.27341 0.65468,5.56479 -4.91011,9.49287 -6.21947,9.49287 -1.30936,0 -2.61872,2.61873 1.30936,2.61873 3.92809,0 8.18352,-0.32734 9.49288,-5.56479 1.30936,-5.23745 1.30936,-8.18352 -1.30936,-10.80224 -2.61873,-2.61872 -8.18352,-5.56479 -10.80224,-5.56479 -2.61872,0 -9.16554,0.32734 -10.14756,-1.6367 -0.98202,-1.96405 -2.94606,-4.25543 -1.6367,-5.89213 1.30936,-1.63671 3.60075,-4.25543 4.91011,-3.92809 1.30936,0.32734 -2.29139,-2.94607 -2.29139,-2.94607 z"
         id="path197" />
      <path
         style="opacity:1;fill:#ffffff;fill-opacity:1;fill-rule:evenodd"
         d="m 401.31954,93.619404 5.23745,-1.636703 14.07564,30.770009 7.85618,-2.94606 1.6367,5.56479 -12.76628,4.58277 z"
         id="path201" />
      <path
         style="opacity:1;fill:#ffffff;fill-opacity:1;fill-rule:evenodd"
         d="m 470.71574,78.889078 h 4.58277 l 12.1116,30.442672 1.30936,-29.13331 h 5.23745 l -2.94606,40.59023 h -4.25543 l -11.45692,-26.187245 -1.96404,24.877885 -5.23745,-0.65468 z"
         id="path207" />
      <path
         style="opacity:1;fill:#ffffff;fill-opacity:1;fill-rule:evenodd"
         d="m 504.10448,88.709295 1.96404,-3.600746 19.64044,7.528833 -1.30936,5.237449 -7.85618,-3.273406 -9.82021,30.770015 -5.89214,-1.96404 10.80224,-31.097359 z"
         id="path209" />
      <path
         style="opacity:1;fill:#ffffff;fill-opacity:1;fill-rule:evenodd"
         d="m 443.54647,80.525781 14.07565,-0.654681 1.30936,4.582768 -11.12958,1.309362 2.29139,12.111601 h 9.16553 l -0.98202,4.255429 -7.85617,0.65468 1.6367,11.78426 11.12958,-0.98202 -1.6367,5.23745 -13.42097,1.30936 z"
         id="path205" />
      <path
         style="opacity:1;fill:#ffffff;fill-opacity:1;fill-rule:evenodd"
         d="m 425.54274,85.76323 4.58277,-2.291384 11.12958,37.971504 -5.56479,1.63671 z"
         id="path203" />
      <path
         style="opacity:1;fill:#ffffff;fill-opacity:1;fill-rule:evenodd"
         d="m 384.62517,102.78494 6.54681,-3.273406 18.98576,33.716076 -6.54681,2.29139 z"
         id="path199" />
    </g>
    <g
       id="g233"
       style="fill:#ef30f2;fill-opacity:1">
      <path
         style="display:inline;opacity:1;fill:#ef30f2;fill-opacity:1"
         d="m 295.8698,547.29837 9.83725,-8.10126 c 0,0 3.35624,3.4141 3.52984,4.05063 0.1736,0.63653 0.28933,2.66185 -0.3472,3.70344 -0.63652,1.04159 -2.31464,3.2405 -3.87703,3.5877 -1.56239,0.3472 -4.33996,0.5208 -5.55515,-0.11573 -1.21519,-0.63653 -3.58771,-3.12478 -3.58771,-3.12478 z"
         id="path106" />
      <path
         style="opacity:1;fill:#ef30f2;fill-opacity:1;fill-rule:evenodd"
         d="m 311.71006,412.12178 2.53689,-15.46684 4.17359,14.40298 z"
         id="path165" />
      <path
         style="opacity:1;fill:#ef30f2;fill-opacity:1;fill-rule:evenodd"
         d="m 260.80289,389.38156 7.17541,-9.89512 c 0,0 9.43219,3.47197 4.51356,8.56419 -4.91862,5.09223 -11.68897,1.33093 -11.68897,1.33093 z"
         id="path157" />
      <path
         style="opacity:1;fill:#ef30f2;fill-opacity:1;fill-rule:evenodd"
         d="m 285.85895,401.82279 3.9349,-12.26764 c 0,0 7.8698,0.46293 7.17541,4.6293 -0.6944,4.16636 -2.44458,6.72592 -3.83578,7.29876 -1.3912,0.57285 -7.27453,0.33958 -7.27453,0.33958 z"
         id="path163" />
      <path
         style="opacity:1;fill:#ef30f2;fill-opacity:1;fill-rule:evenodd"
         d="m 251.83364,403.50091 7.1754,-10.41592 c 0,0 11.05244,4.68716 7.52261,8.85353 -3.52984,4.16636 -4.33997,4.45569 -5.96022,4.57143 -1.62025,0.11573 -5.84449,-1.09946 -6.59675,-1.56239 -0.75226,-0.46293 -2.14104,-1.44665 -2.14104,-1.44665 z"
         id="path159" />
      <path
         style="opacity:1;fill:#ef30f2;fill-opacity:1"
         d="m 441.25509,387.89858 14.73033,5.56479 c 0,0 3.60074,-11.78426 -2.94607,-12.76628 -6.54681,-0.98203 -9.16553,0.32734 -11.78426,7.20149 z"
         id="path129" />
      <path
         style="opacity:1;fill:#ef30f2;fill-opacity:1;fill-rule:evenodd"
         d="m 331.596,166.78002 c 0,0 2.86423,-6.38314 6.46498,-6.3013 3.60074,0.0818 5.23745,1.22752 6.71048,3.84625 1.47303,2.61872 -0.73652,8.75636 -0.73652,8.75636 z"
         id="path193" />
      <path
         style="opacity:1;fill:#ef30f2;fill-opacity:1"
         d="m 461.55021,395.75475 16.36702,7.20149 c 0,0 6.87416,-10.80223 -2.61872,-15.71234 -9.49288,-4.91011 -13.7483,8.51085 -13.7483,8.51085 z"
         id="path131" />
      <path
         style="display:inline;opacity:1;fill:#ef30f2;fill-opacity:1"
         d="m 315.88365,563.18945 c 0,0 1.63671,-3.2734 2.04588,-3.68258 0.40918,-0.40917 1.3912,-1.80037 2.94607,-2.94606 1.55486,-1.14569 2.94606,-2.86423 4.25542,-3.0279 1.30937,-0.16367 2.45506,-1.06386 3.84626,-0.0818 1.39119,0.98202 2.70055,1.96405 2.78239,3.0279 0.0818,1.06386 0.32734,4.99195 0.16367,5.89213 -0.16367,0.90019 -0.90019,3.43708 -1.22753,4.33727 -0.32734,0.90018 -1.22752,3.10973 -2.04588,4.33726 -0.81835,1.22753 -1.80037,3.2734 -3.2734,4.74644 -1.47303,1.47303 -3.0279,3.51891 -4.99194,4.17359 -1.96405,0.65468 -4.50094,0.81835 -5.8103,-0.40918 -1.30936,-1.22752 -2.37322,-2.70056 -2.20955,-4.82827 0.16367,-2.12771 0.32734,-4.6646 0.73652,-6.21947 0.40917,-1.55487 0.40917,-2.29139 1.06385,-3.35524 0.65469,-1.06386 1.71854,-1.96405 1.71854,-1.96405 z"
         id="path109" />
      <path
         style="opacity:1;fill:#ef30f2;fill-opacity:1"
         d="m 674.15791,244.68708 14.07564,-3.43708 0.65468,7.03782 c 0,0 -0.49101,4.91011 -5.40112,5.07378 -4.9101,0.16367 -7.6925,0 -8.83819,-3.43707 -1.14569,-3.43708 -0.49101,-5.23745 -0.49101,-5.23745 z"
         id="path94" />
      <path
         style="opacity:1;fill:#ef30f2;fill-opacity:1"
         d="m 654.84481,217.35414 c 0,0 4.58277,-4.58277 10.80224,-6.38314 6.21947,-1.80037 9.82022,-3.10974 12.43894,-1.14569 2.61873,1.96404 5.56479,5.56479 4.58277,7.36516 -0.98202,1.80037 -5.56479,6.38314 -7.6925,7.52883 -2.12771,1.14569 -7.03782,4.25543 -10.14756,4.91011 -3.10973,0.65468 -9.00186,0.98202 -10.4749,0.16367 -1.47303,-0.81835 -3.60074,-2.61872 -3.60074,-4.74644 0,-2.12771 0.49101,-4.09175 1.6367,-5.56479 1.14569,-1.47303 2.45505,-2.12771 2.45505,-2.12771 z"
         id="path90" />
      <path
         style="opacity:1;fill:#ef30f2;fill-opacity:1"
         d="m 400.66486,456.31276 17.02171,14.40298 -8.8382,7.52884 z"
         id="path123" />
    </g>
  </g>
</svg>
